<svg xmlns="http://www.w3.org/2000/svg" width="16" height="16" fill="none"><g clip-path="url(#a)"><path stroke="#7E7E7E" stroke-width=".5" d="m8.783 17.125-10.5-18.187M12.784 17.125 2.283-1.062M16.784 17.125 6.283-1.062M20.784 17.125l-10.5-18.187M24.784 17.125l-10.5-18.187M4.783 17.125l-10.5-18.187M1.783 17.125l-10.5-18.187"/><circle cx="8" cy="8" r="5" fill="#259F00"/><path fill="#fff" d="M5.625 11.113a.063.063 0 0 1-.063-.063c0-.013 0-.031.013-.038L7.744 8.65 5.537 8c-.018-.006-.037-.031-.037-.056 0-.019.006-.044.025-.05l4.931-3.013c.013-.006.019-.006.032-.006.024 0 .062.019.062.056a.068.068 0 0 1-.019.044L8.37 7.331l2.212.556c.019.007.044.026.044.044 0 .025-.012.05-.031.063L5.656 11.1c-.012.013-.025.013-.031.013Z"/></g><defs><clipPath id="a"><path fill="#fff" d="M0 0h16v16H0z"/></clipPath></defs></svg>