<svg xmlns="http://www.w3.org/2000/svg" width="16" height="16" fill="none"><mask id="a" fill="#fff"><path fill-rule="evenodd" d="M8.8 2.4H4v11.2h8v-8L8.8 2.4Z" clip-rule="evenodd"/></mask><path fill="#fff" fill-rule="evenodd" d="M8.8 2.4H4v11.2h8v-8L8.8 2.4Z" clip-rule="evenodd"/><path fill="#7E7E7E" d="M4 2.4v-.8h-.8v.8H4Zm4.8 0 .56569-.56568L9.13137 1.6H8.8v.8ZM4 13.6h-.8v.8H4v-.8Zm8 0v.8h.8v-.8H12Zm0-8h.8v-.33137l-.2343-.23432L12 5.6ZM4 3.2h4.8V1.6H4v1.6Zm.8 10.4V2.4H3.2v11.2h1.6Zm7.2-.8H4v1.6h8v-1.6Zm-.8-7.2v8h1.6v-8h-1.6ZM8.23431 2.96569l3.19999 3.2 1.1314-1.13138-3.20001-3.19999-1.13138 1.13137Z" mask="url(#a)"/><path fill="#7E7E7E" d="M4.4 9.2c.53333.13333 1.28.48 3.2-.8 1.92-1.28 3.7333-.13333 4 .8v4H4.4v-4Z"/><mask id="b" fill="#fff"><path fill-rule="evenodd" d="M8.8 2.4H4v11.2h8v-8L8.8 2.4Z" clip-rule="evenodd"/></mask><path fill="#7E7E7E" d="M4 2.4v-.8h-.8v.8H4Zm4.8 0 .56569-.56568L9.13137 1.6H8.8v.8ZM4 13.6h-.8v.8H4v-.8Zm8 0v.8h.8v-.8H12Zm0-8h.8v-.33137l-.2343-.23432L12 5.6ZM4 3.2h4.8V1.6H4v1.6Zm.8 10.4V2.4H3.2v11.2h1.6Zm7.2-.8H4v1.6h8v-1.6Zm-.8-7.2v8h1.6v-8h-1.6ZM8.23431 2.96569l3.19999 3.2 1.1314-1.13138-3.20001-3.19999-1.13138 1.13137Z" mask="url(#b)"/></svg>