<svg xmlns="http://www.w3.org/2000/svg" width="16" height="16" fill="none"><path stroke="#C63434" d="M12.5867 9.54468c-.5682.45441-1.4429.82842-2.516 1.03652-1.06778.2071-2.24156.232-3.34181.0699-1.10416-.1627-2.04552-.5005-2.6974-.93888-.65701-.44186-.92058-.91269-.93224-1.30932-.01153-.39205.21939-.85852.84335-1.30559.6212-.44509 1.53867-.7968 2.63219-.97656 1.0891-.17903 2.26391-.17266 3.34471.01787 1.0856.19137 1.986.55235 2.5858 1.00154"/><path stroke="#274DAD" d="M3.80464 9.54471c.56805.4544 1.44257.82839 2.51546 1.03649 1.06759.2071 2.24113.232 3.34115.0699 1.10395-.1627 2.04505-.5005 2.69685-.93886.6568-.44184.9204-.91267.932-1.30934.0116-.3921-.2193-.85857-.8431-1.30562-.6211-.44508-1.5384-.79677-2.63168-.97653-1.08888-.17903-2.26344-.17266-3.34403.01786-1.08535.19137-1.9856.55235-2.58526 1.00152"/><path stroke="#C63434" d="M13.1804 8.84074c-.224.47555-.8055.9767-1.7621 1.35506-.943.3729-2.12531.575-3.34794.5603-1.22302-.0146-2.38314-.2449-3.28672-.6381-.91754-.3992-1.43964-.9066-1.61458-1.3715"/><path fill="#C63434" stroke="#C63434" d="m12.2007 9.12237 1.0561-.12733-.421 1.00606-.6351-.87873Z"/><path fill="#274DAD" stroke="#274DAD" d="m3.21845 7.1089-.27041.9989 1.08923-.27194-.81882-.72696Z"/><path stroke="#259F00" d="M9.20964 4.35776c.46746.54728.85166 1.38881 1.06556 2.42135.2128 1.02786.2385 2.15798.0718 3.21723-.1673 1.06276-.51433 1.96836-.96489 2.59566-.45189.6292-.94278.8957-1.37433.9076-.42815.0118-.91615-.2241-1.37361-.822-.45756-.5979-.8189-1.4805-1.00366-2.5329-.18407-1.04849-.17752-2.1796.01836-3.22004.19668-1.04468.56753-1.91091 1.02941-2.48839"/><path fill="#259F00" stroke="#259F00" d="M8.74622 4.70668 8.61426 3.6819l1.0426.40854-.91064.61624Z"/></svg>