<svg xmlns="http://www.w3.org/2000/svg" width="16" height="16" fill="none"><path fill="#7E7E7E" fill-rule="evenodd" d="M9 3H7v1.12602c-.36702.09446-.71366.23971-1.03197.4278l-.79646-.79646-1.41421 1.41421.79646.79646c-.18809.31832-.33334.66495-.4278 1.03197H3v2h1.12602c.09446.36702.23971.71365.4278 1.032l-.79646.7964 1.41421 1.4142.79646-.7964c.31831.1881.66495.3333 1.03197.4278V13h2v-1.126c.36702-.0945.71365-.2397 1.032-.4278l.7964.7964 1.4142-1.4142-.7964-.7964c.1881-.31834.3333-.66498.4278-1.032H13V7h-1.126c-.0945-.36702-.2397-.71366-.4278-1.03197l.7964-.79646-1.4142-1.41421-.7964.79646c-.31835-.18809-.66498-.33334-1.032-.4278V3Zm-1 7c1.10457 0 2-.89543 2-2s-.89543-2-2-2-2 .89543-2 2 .89543 2 2 2Z" clip-rule="evenodd"/></svg>