<svg xmlns="http://www.w3.org/2000/svg" width="16" height="16" fill="none"><circle cx="8" cy="8" r="5" fill="#259F00"/><path fill="#fff" d="M5.625 11.1125c-.03125 0-.0625-.025-.0625-.0625 0-.0125 0-.0312.0125-.0375L7.74375 8.65 5.5375 8C5.51875 7.99375 5.5 7.96875 5.5 7.94375c0-.01875.00625-.04375.025-.05l4.9313-3.0125c.0125-.00625.0187-.00625.0312-.00625.025 0 .0625.01875.0625.05625 0 .0125-.0063.03125-.0187.04375L8.36875 7.33125l2.21255.55625c.0187.00625.0437.025.0437.04375 0 .025-.0125.05-.0312.0625L5.65625 11.1c-.0125.0125-.025.0125-.03125.0125Z"/></svg>