<svg xmlns="http://www.w3.org/2000/svg" width="16" height="16" fill="none"><g clip-path="url(#a)"><path stroke="#7E7E7E" stroke-width=".5" d="m8.78349 17.125-10.5-18.18653M12.7835 17.125 2.28349-1.06153M16.7835 17.125 6.28349-1.06153M20.7835 17.125l-10.5-18.18653M24.7835 17.125l-10.5-18.18653M4.78349 17.125l-10.5-18.18653M1.78349 17.125l-10.5-18.18653"/><rect width="14" height="6" x=".5" y="9" fill="#C63434" rx="2" transform="rotate(-30 .5 9)"/><path fill="#274DAD" d="M1.5 10.7321C.947715 9.77547 1.27547 8.55228 2.23205 8l4.33013-2.5 3 5.1962-4.33013 2.5c-.95658.5522-2.17977.2245-2.73205-.7321l-1-1.732Z"/><path fill="#fff" d="m3.99544 11.5542-.03809-.066.88415-.5105.03076.0533c.08789.1522.21095.2368.36918.2537.15874.0144.35243-.0445.58107-.1765.19895-.1148.33235-.237.40019-.3663.06834-.132.07126-.2521.00876-.3603-.06445-.1116-.16888-.1776-.31327-.198-.1444-.0204-.4412.0416-.89039.1859-.46005.1461-.84504.1924-1.15498.1391-.30942-.0559-.55348-.2386-.7322-.54817-.2041-.35351-.23065-.70467-.07965-1.05346.1515-.35134.447-.65387.88647-.9076.43799-.25288.85188-.34862 1.24167-.28725.38881.05969.67843.25445.86886.58428l.03662.06343-.86188.4976-.02783-.0482c-.07469-.13279-.18595-.21064-.33378-.23354-.14635-.02376-.32272.02394-.52909.14309-.20638.11915-.3385.2349-.39637.34725-.05885.11065-.05752.21926.00401.32582.05371.09303.15108.14168.29212.14596.14007.00258.41613-.05758.82821-.18047.46146-.13337.85335-.17807 1.17566-.13412.32134.04225.59236.25452.81307.63679.19531.33829.21202.68609.05012 1.04349-.16288.3556-.46925.6633-.91912.923-.4469.258-.86954.3746-1.26793.3498-.39787-.0274-.70666-.2348-.92634-.6221ZM10.6391 9.06145 8.50629 5.36731l.87311-.50409 2.3136 1.26907c.0943.0538.1933.11396.2968.18047.1026.06482.1805.12017.2339.16607l.0194-.01121c-.0424-.05674-.0906-.127-.1447-.21077-.0541-.08378-.1071-.17049-.1588-.26014l-1.1309-1.9587.7287-.4207 2.1328 3.69414-.9011.52027-2.3985-1.31143c-.0919-.05295-.1729-.10538-.2432-.15731-.0687-.05275-.1257-.1033-.17088-.15165l-.02371.01369c.04378.05591.08929.11984.13659.19177.0463.07024.0958.15104.1486.24237l1.1455 1.98408-.7244.41821Z"/></g><defs><clipPath id="a"><path fill="#fff" d="M0 0h16v16H0z"/></clipPath></defs></svg>